<svg width="73" height="73" viewBox="0 0 73 73" fill="none" xmlns="http://www.w3.org/2000/svg">
<path d="M72.3889 0.888916H0.888916V72.3889H72.3889V0.888916Z" fill="#F7DF1E"/>
<path d="M48.9187 56.7486C50.359 59.1002 52.2327 60.8287 55.5467 60.8287C58.3306 60.8287 60.1091 59.4372 60.1091 57.5147C60.1091 55.2108 58.2818 54.3948 55.2176 53.0545L53.5379 52.3338C48.6895 50.2682 45.4686 47.6806 45.4686 42.2103C45.4686 37.1712 49.308 33.3352 55.3083 33.3352C59.5802 33.3352 62.6513 34.822 64.8644 38.7147L59.6324 42.0741C58.4804 40.0085 57.2377 39.1948 55.3083 39.1948C53.3404 39.1948 52.0931 40.4432 52.0931 42.0741C52.0931 44.0897 53.3415 44.9057 56.2242 46.1541L57.9039 46.8737C63.6126 49.3217 66.8357 51.8174 66.8357 57.4284C66.8357 63.4776 62.0838 66.7915 55.7022 66.7915C49.4624 66.7915 45.4311 63.818 43.4586 59.9207L48.9187 56.7486ZM25.1841 57.3308C26.2396 59.2035 27.1998 60.7867 29.5082 60.7867C31.7156 60.7867 33.1082 59.923 33.1082 56.5648V33.7188H39.8269V56.6556C39.8269 63.6126 35.748 66.779 29.7942 66.779C24.4147 66.779 21.2993 63.9951 19.715 60.642L25.1841 57.3308Z" fill="black"/>
</svg>
